<svg width="165" height="61" viewBox="0 0 165 61" fill="none" xmlns="http://www.w3.org/2000/svg">
<g clip-path="url(#clip0_1_4)">
<rect width="165" height="61" fill="white"/>
<path d="M1.65527 60V0.409997H4.68527V60H1.65527ZM7.71527 60V0.409997H10.7453V60H7.71527ZM19.8353 60V0.409997H25.8953V60H19.8353ZM34.9932 60V0.409997H41.0532V60H34.9932ZM47.1132 60V0.409997H56.2032V60H47.1132ZM62.2632 60V0.409997H65.2932V60H62.2632ZM68.3311 60V0.409997H71.3611V60H68.3311ZM80.4511 60V0.409997H86.5111V60H80.4511ZM89.5411 60V0.409997H92.5711V60H89.5411ZM101.669 60V0.409997H104.699V60H101.669ZM107.729 60V0.409997H113.789V60H107.729ZM122.879 60V0.409997H125.909V60H122.879ZM135.007 60V0.409997H144.097V60H135.007ZM147.127 60V0.409997H153.187V60H147.127ZM156.217 60V0.409997H165.307V60H156.217Z" fill="black" fill-opacity="0.8"/>
</g>
<defs>
<clipPath id="clip0_1_4">
<rect width="165" height="61" fill="white"/>
</clipPath>
</defs>
</svg>
